<?xml version="1.0" encoding="UTF-8"?>
<svg width="830px" height="275px" viewBox="0 0 830 275" version="1.1" xmlns="http://www.w3.org/2000/svg" xmlns:xlink="http://www.w3.org/1999/xlink">
    <!-- Generator: Sketch 49.3 (51167) - http://www.bohemiancoding.com/sketch -->
    <title>Head_ConceptsofBiology</title>
    <desc>Created with Sketch.</desc>
    <defs></defs>
    <g id="Head_ConceptsofBiology" stroke="none" stroke-width="1" fill="none" fill-rule="evenodd">
        <path d="M69.395,52.906 C69.0456649,50.5479882 68.2596728,48.3865098 67.037,46.4215 C65.8143272,44.4564902 64.2860092,42.7316741 62.452,41.247 C60.6179908,39.7623259 58.5438449,38.6051708 56.2295,37.7755 C53.9151551,36.9458292 51.4916793,36.531 48.959,36.531 C44.3303102,36.531 40.4003495,37.4261577 37.169,39.2165 C33.9376505,41.0068423 31.3176767,43.4084849 29.309,46.4215 C27.3003233,49.4345151 25.8375046,52.8623141 24.9205,56.705 C24.0034954,60.5476859 23.545,64.5213128 23.545,68.626 C23.545,72.5560196 24.0034954,76.3768148 24.9205,80.0885 C25.8375046,83.8001852 27.3003233,87.1406518 29.309,90.11 C31.3176767,93.0793482 33.9376505,95.4591577 37.169,97.2495 C40.4003495,99.0398423 44.3303102,99.935 48.959,99.935 C55.2470314,99.935 60.1594823,98.0136859 63.6965,94.171 C67.2335177,90.3283141 69.3949961,85.2630314 70.181,78.975 L90.093,78.975 C89.5689974,84.8263626 88.2153443,90.1099764 86.032,94.826 C83.8486558,99.5420236 80.9666846,103.559317 77.386,106.878 C73.8053154,110.196683 69.6133574,112.729325 64.81,114.476 C60.0066427,116.222675 54.7230288,117.096 48.959,117.096 C41.7976309,117.096 35.3568619,115.851512 29.6365,113.3625 C23.9161381,110.873488 19.0910196,107.445689 15.161,103.079 C11.2309804,98.7123115 8.21801048,93.5815295 6.122,87.6865 C4.02598952,81.7914705 2.978,75.4380341 2.978,68.626 C2.978,61.6392984 4.02598952,55.1548632 6.122,49.1725 C8.21801048,43.1901368 11.2309804,37.9720223 15.161,33.518 C19.0910196,29.0639777 23.9161381,25.5706793 29.6365,23.038 C35.3568619,20.5053207 41.7976309,19.239 48.959,19.239 C54.1116924,19.239 58.9804771,19.9813259 63.5655,21.466 C68.1505229,22.9506741 72.2551485,25.1121525 75.8795,27.9505 C79.5038515,30.7888475 82.4949882,34.303979 84.853,38.496 C87.2110118,42.688021 88.6956636,47.4913063 89.307,52.906 L69.395,52.906 Z M116.251,81.202 C116.251,83.9093469 116.512997,86.5511538 117.037,89.1275 C117.561003,91.7038462 118.45616,94.0181564 119.7225,96.0705 C120.98884,98.1228436 122.669989,99.7603272 124.766,100.983 C126.86201,102.205673 129.481984,102.817 132.626,102.817 C135.770016,102.817 138.411823,102.205673 140.5515,100.983 C142.691177,99.7603272 144.39416,98.1228436 145.6605,96.0705 C146.92684,94.0181564 147.821997,91.7038462 148.346,89.1275 C148.870003,86.5511538 149.132,83.9093469 149.132,81.202 C149.132,78.4946531 148.870003,75.8310131 148.346,73.211 C147.821997,70.5909869 146.92684,68.2766767 145.6605,66.268 C144.39416,64.2593233 142.691177,62.6218397 140.5515,61.3555 C138.411823,60.0891603 135.770016,59.456 132.626,59.456 C129.481984,59.456 126.86201,60.0891603 124.766,61.3555 C122.669989,62.6218397 120.98884,64.2593233 119.7225,66.268 C118.45616,68.2766767 117.561003,70.5909869 117.037,73.211 C116.512997,75.8310131 116.251,78.4946531 116.251,81.202 Z M97.6489999,81.202 C97.6489999,75.7873063 98.4786583,70.8748554 100.138,66.4645 C101.797342,62.0541446 104.155318,58.2988488 107.212,55.1985 C110.268682,52.0981512 113.936645,49.6965085 118.216,47.9935 C122.495355,46.2904915 127.29864,45.439 132.626,45.439 C137.95336,45.439 142.778478,46.2904915 147.1015,47.9935 C151.424522,49.6965085 155.114318,52.0981512 158.171,55.1985 C161.227682,58.2988488 163.585658,62.0541446 165.245,66.4645 C166.904342,70.8748554 167.734,75.7873063 167.734,81.202 C167.734,86.6166937 166.904342,91.5073115 165.245,95.874 C163.585658,100.240689 161.227682,103.974151 158.171,107.0745 C155.114318,110.174849 151.424522,112.554658 147.1015,114.214 C142.778478,115.873342 137.95336,116.703 132.626,116.703 C127.29864,116.703 122.495355,115.873342 118.216,114.214 C113.936645,112.554658 110.268682,110.174849 107.212,107.0745 C104.155318,103.974151 101.797342,100.240689 100.138,95.874 C98.4786583,91.5073115 97.6489999,86.6166937 97.6489999,81.202 Z M177.386,47.273 L195.071,47.273 L195.071,56.705 L195.464,56.705 C197.822012,52.7749803 200.878648,49.9148423 204.634,48.1245 C208.389352,46.3341577 212.23198,45.439 216.162,45.439 C221.140025,45.439 225.222817,46.1158266 228.4105,47.4695 C231.598182,48.8231734 234.108991,50.7008213 235.943,53.1025 C237.777009,55.5041787 239.065163,58.4298161 239.8075,61.8795 C240.549837,65.3291839 240.921,69.149979 240.921,73.342 L240.921,115 L222.319,115 L222.319,76.748 C222.319,71.1586387 221.445675,66.9885138 219.699,64.2375 C217.952324,61.4864862 214.852022,60.111 210.398,60.111 C205.332641,60.111 201.664678,61.6174849 199.394,64.6305 C197.123322,67.6435151 195.988,72.5996322 195.988,79.499 L195.988,115 L177.386,115 L177.386,47.273 Z M298.781,71.115 C297.558327,63.3422945 292.973373,59.456 285.026,59.456 C282.056652,59.456 279.567676,60.1328266 277.559,61.4865 C275.550323,62.8401734 273.912839,64.5868226 272.6465,66.7265 C271.38016,68.8661774 270.485002,71.2241538 269.961,73.8005 C269.436997,76.3768462 269.175,78.9313207 269.175,81.464 C269.175,83.9093456 269.436997,86.3983207 269.961,88.931 C270.485002,91.4636793 271.336494,93.7561564 272.5155,95.8085 C273.694506,97.8608436 275.288323,99.5419935 277.297,100.852 C279.305676,102.162007 281.750985,102.817 284.633,102.817 C289.087022,102.817 292.514821,101.572512 294.9165,99.0835 C297.318178,96.5944876 298.824663,93.254021 299.436,89.062 L317.383,89.062 C316.160327,98.0573783 312.667029,104.912976 306.903,109.629 C301.138971,114.345024 293.759378,116.703 284.764,116.703 C279.698641,116.703 275.048188,115.851509 270.8125,114.1485 C266.576812,112.445491 262.974348,110.065682 260.005,107.009 C257.035652,103.952318 254.721341,100.306188 253.062,96.0705 C251.402658,91.8348122 250.573,87.1843587 250.573,82.119 C250.573,76.8789738 251.337159,72.0101892 252.8655,67.5125 C254.393841,63.0148108 256.642652,59.1285164 259.612,55.8535 C262.581348,52.5784836 266.205645,50.0240092 270.485,48.19 C274.764354,46.3559908 279.654972,45.439 285.157,45.439 C289.174353,45.439 293.038814,45.9629948 296.7505,47.011 C300.462185,48.0590052 303.780818,49.6528226 306.7065,51.7925 C309.632181,53.9321774 312.011991,56.5958174 313.846,59.7835 C315.680009,62.9711826 316.727998,66.7483115 316.99,71.115 L298.781,71.115 Z M371.051,73.866 C370.177662,69.1499764 368.627511,65.5693456 366.4005,63.124 C364.173488,60.6786544 360.789356,59.456 356.248,59.456 C353.278651,59.456 350.811509,59.9581616 348.8465,60.9625 C346.88149,61.9668384 345.309506,63.2113259 344.1305,64.696 C342.951494,66.1806741 342.121835,67.7526584 341.6415,69.412 C341.161164,71.0713416 340.877333,72.5559935 340.79,73.866 L371.051,73.866 Z M340.79,85.656 C341.052001,91.6820301 342.580319,96.0486531 345.375,98.756 C348.16968,101.463347 352.186973,102.817 357.427,102.817 C361.182352,102.817 364.413653,101.878176 367.121,100.0005 C369.828346,98.1228239 371.487663,96.1360105 372.099,94.04 L388.474,94.04 C385.853987,102.162041 381.836693,107.969649 376.422,111.463 C371.007306,114.956351 364.457371,116.703 356.772,116.703 C351.44464,116.703 346.641354,115.851509 342.362,114.1485 C338.082645,112.445491 334.458348,110.022016 331.489,106.878 C328.519651,103.733984 326.227174,99.9786885 324.6115,95.612 C322.995825,91.2453115 322.188,86.4420262 322.188,81.202 C322.188,76.1366413 323.017658,71.4206885 324.677,67.054 C326.336341,62.6873115 328.694318,58.9101826 331.751,55.7225 C334.807682,52.5348174 338.453812,50.0240092 342.6895,48.19 C346.925187,46.3559908 351.619307,45.439 356.772,45.439 C362.536028,45.439 367.557645,46.5524889 371.837,48.7795 C376.116354,51.0065111 379.631486,53.9976479 382.3825,57.753 C385.133513,61.5083521 387.120327,65.7876427 388.343,70.591 C389.565672,75.3943574 390.002335,80.4159738 389.653,85.656 L340.79,85.656 Z M432.448,102.817 C435.504681,102.817 438.059156,102.205673 440.1115,100.983 C442.163843,99.7603272 443.82316,98.1665098 445.0895,96.2015 C446.355839,94.2364902 447.250997,91.9440131 447.775,89.324 C448.299002,86.7039869 448.561,84.0403469 448.561,81.333 C448.561,78.6256531 448.277169,75.9620131 447.7095,73.342 C447.14183,70.7219869 446.203006,68.3858436 444.893,66.3335 C443.582993,64.2811564 441.901843,62.6218397 439.8495,61.3555 C437.797156,60.0891603 435.286348,59.456 432.317,59.456 C429.260318,59.456 426.705843,60.0891603 424.6535,61.3555 C422.601156,62.6218397 420.941839,64.2593233 419.6755,66.268 C418.40916,68.2766767 417.514002,70.5909869 416.99,73.211 C416.465997,75.8310131 416.204,78.5383194 416.204,81.333 C416.204,84.0403469 416.48783,86.7039869 417.0555,89.324 C417.623169,91.9440131 418.54016,94.2364902 419.8065,96.2015 C421.072839,98.1665098 422.753989,99.7603272 424.85,100.983 C426.94601,102.205673 429.478651,102.817 432.448,102.817 Z M398.257,47.273 L415.942,47.273 L415.942,55.919 L416.204,55.919 C418.474678,52.2509817 421.356649,49.5873416 424.85,47.928 C428.34335,46.2686584 432.185979,45.439 436.378,45.439 C441.705359,45.439 446.290314,46.4433233 450.133,48.452 C453.975685,50.4606767 457.16332,53.1243167 459.696,56.443 C462.228679,59.7616833 464.106327,63.6261446 465.329,68.0365 C466.551672,72.4468554 467.163,77.0536427 467.163,81.857 C467.163,86.398356 466.551672,90.764979 465.329,94.957 C464.106327,99.149021 462.250512,102.860651 459.7615,106.092 C457.272487,109.323349 454.172185,111.899657 450.4605,113.821 C446.748814,115.742343 442.404024,116.703 437.426,116.703 C433.233979,116.703 429.369517,115.851509 425.8325,114.1485 C422.295482,112.445491 419.391678,109.934683 417.121,106.616 L416.859,106.616 L416.859,138.711 L398.257,138.711 L398.257,47.273 Z M499.477999,47.273 L513.101999,47.273 L513.101999,59.718 L499.477999,59.718 L499.477999,93.254 C499.477999,96.3980157 500.001994,98.4939948 501.049999,99.542 C502.098005,100.590005 504.193984,101.114 507.337999,101.114 C508.386005,101.114 509.390328,101.070334 510.350999,100.983 C511.311671,100.895666 512.228662,100.764668 513.101999,100.59 L513.101999,115 C511.529992,115.262001 509.783342,115.436666 507.861999,115.524 C505.940656,115.611334 504.063009,115.655 502.228999,115.655 C499.346985,115.655 496.617846,115.458502 494.041499,115.0655 C491.465153,114.672498 489.194509,113.908339 487.229499,112.773 C485.26449,111.637661 483.714338,110.02201 482.578999,107.926 C481.44366,105.82999 480.875999,103.079017 480.875999,99.673 L480.875999,59.718 L469.609999,59.718 L469.609999,47.273 L480.875999,47.273 L480.875999,26.968 L499.477999,26.968 L499.477999,47.273 Z M534.019999,92.992 C534.019999,95.0006767 534.434829,96.7254928 535.264499,98.1665 C536.09417,99.6075072 537.163993,100.786495 538.473999,101.7035 C539.784006,102.620505 541.290491,103.297331 542.993499,103.734 C544.696508,104.170669 546.46499,104.389 548.298999,104.389 C549.609006,104.389 550.984492,104.236168 552.425499,103.9305 C553.866507,103.624832 555.176493,103.144503 556.355499,102.4895 C557.534505,101.834497 558.516995,100.961172 559.302999,99.8695 C560.089003,98.7778279 560.481999,97.4023416 560.481999,95.743 C560.481999,92.9483194 558.626185,90.8523403 554.914499,89.455 C551.202814,88.0576597 546.028366,86.6603403 539.390999,85.263 C536.683652,84.6516636 534.041846,83.9311708 531.465499,83.1015 C528.889153,82.2718292 526.596676,81.1801734 524.587999,79.8265 C522.579323,78.4728266 520.963672,76.7698436 519.740999,74.7175 C518.518327,72.6651564 517.906999,70.1543482 517.906999,67.185 C517.906999,62.8183115 518.758491,59.2376806 520.461499,56.443 C522.164508,53.6483194 524.413319,51.4431747 527.207999,49.8275 C530.00268,48.2118253 533.146649,47.0765033 536.639999,46.4215 C540.13335,45.7664967 543.713981,45.439 547.381999,45.439 C551.050018,45.439 554.608815,45.7883298 558.058499,46.487 C561.508183,47.1856702 564.586652,48.3646584 567.293999,50.024 C570.001346,51.6833416 572.250157,53.8884862 574.040499,56.6395 C575.830842,59.3905138 576.900664,62.861979 577.249999,67.054 L559.564999,67.054 C559.302998,63.4733154 557.949345,61.0498397 555.503999,59.7835 C553.058654,58.5171603 550.176683,57.884 546.857999,57.884 C545.809994,57.884 544.674672,57.9494993 543.451999,58.0805 C542.229327,58.2115007 541.115838,58.4953311 540.111499,58.932 C539.107161,59.3686689 538.255669,60.0018292 537.556999,60.8315 C536.858329,61.6611708 536.508999,62.7746597 536.508999,64.172 C536.508999,65.8313416 537.120327,67.1849948 538.342999,68.233 C539.565672,69.2810052 541.15949,70.1324967 543.124499,70.7875 C545.089509,71.4425033 547.33832,72.0319974 549.870999,72.556 C552.403679,73.0800026 554.979986,73.6476636 557.599999,74.259 C560.307346,74.8703364 562.949153,75.6126623 565.525499,76.486 C568.101846,77.3593377 570.394323,78.5164928 572.402999,79.9575 C574.411676,81.3985072 576.027327,83.1888226 577.249999,85.3285 C578.472672,87.4681774 579.083999,90.1099843 579.083999,93.254 C579.083999,97.7080223 578.188842,101.441485 576.398499,104.4545 C574.608157,107.467515 572.272014,109.890991 569.389999,111.725 C566.507985,113.559009 563.211185,114.847163 559.499499,115.5895 C555.787814,116.331837 552.010685,116.703 548.167999,116.703 C544.23798,116.703 540.395351,116.310004 536.639999,115.524 C532.884647,114.737996 529.544181,113.428009 526.618499,111.594 C523.692818,109.759991 521.291175,107.336515 519.413499,104.3235 C517.535823,101.310485 516.509667,97.533356 516.334999,92.992 L534.019999,92.992 Z" id="Concepts" fill="#F4D019"></path>
        <path d="M70.6239999,178.325 L91.4529999,178.325 C95.1210182,178.325 98.1339881,177.451675 100.492,175.705 C102.850012,173.958325 104.029,171.12002 104.029,167.19 C104.029,165.006656 103.636004,163.21634 102.85,161.819 C102.063996,160.42166 101.016006,159.330004 99.7059999,158.544 C98.3959934,157.757996 96.8895084,157.212168 95.1864999,156.9065 C93.4834914,156.600832 91.7150091,156.448 89.8809999,156.448 L70.6239999,156.448 L70.6239999,178.325 Z M50.0569999,140.466 L94.0729999,140.466 C98.5270222,140.466 102.587982,140.858996 106.256,141.645 C109.924018,142.431004 113.067987,143.719158 115.688,145.5095 C118.308013,147.299842 120.338493,149.679652 121.7795,152.649 C123.220507,155.618348 123.941,159.286312 123.941,163.653 C123.941,168.369024 122.871177,172.298984 120.7315,175.443 C118.591823,178.587016 115.426021,181.163323 111.234,183.172 C116.998029,184.831342 121.299152,187.735146 124.1375,191.8835 C126.975847,196.031854 128.395,201.031637 128.395,206.883 C128.395,211.599024 127.478009,215.681816 125.644,219.1315 C123.809991,222.581184 121.342849,225.397656 118.2425,227.581 C115.142151,229.764344 111.605186,231.379995 107.6315,232.428 C103.657813,233.476005 99.5750209,234 95.3829999,234 L50.0569999,234 L50.0569999,140.466 Z M70.6239999,218.018 L92.6319999,218.018 C94.6406766,218.018 96.5619907,217.821502 98.3959999,217.4285 C100.230009,217.035498 101.84566,216.380505 103.243,215.4635 C104.64034,214.546495 105.753829,213.302008 106.5835,211.73 C107.413171,210.157992 107.828,208.149346 107.828,205.704 C107.828,200.900643 106.474347,197.472844 103.767,195.4205 C101.059653,193.368156 97.4790222,192.342 93.0249999,192.342 L70.6239999,192.342 L70.6239999,218.018 Z M157.042,155.793 L138.44,155.793 L138.44,140.466 L157.042,140.466 L157.042,155.793 Z M138.44,166.273 L157.042,166.273 L157.042,234 L138.44,234 L138.44,166.273 Z M185.82,200.202 C185.82,202.909347 186.081997,205.551154 186.606,208.1275 C187.130002,210.703846 188.02516,213.018156 189.2915,215.0705 C190.557839,217.122844 192.238989,218.760327 194.335,219.983 C196.43101,221.205673 199.050984,221.817 202.195,221.817 C205.339015,221.817 207.980822,221.205673 210.1205,219.983 C212.260177,218.760327 213.96316,217.122844 215.2295,215.0705 C216.495839,213.018156 217.390997,210.703846 217.915,208.1275 C218.439002,205.551154 218.701,202.909347 218.701,200.202 C218.701,197.494653 218.439002,194.831013 217.915,192.211 C217.390997,189.590987 216.495839,187.276677 215.2295,185.268 C213.96316,183.259323 212.260177,181.62184 210.1205,180.3555 C207.980822,179.08916 205.339015,178.456 202.195,178.456 C199.050984,178.456 196.43101,179.08916 194.335,180.3555 C192.238989,181.62184 190.557839,183.259323 189.2915,185.268 C188.02516,187.276677 187.130002,189.590987 186.606,192.211 C186.081997,194.831013 185.82,197.494653 185.82,200.202 Z M167.218,200.202 C167.218,194.787306 168.047658,189.874855 169.707,185.4645 C171.366341,181.054145 173.724318,177.298849 176.781,174.1985 C179.837682,171.098151 183.505645,168.696509 187.785,166.9935 C192.064354,165.290491 196.86764,164.439 202.195,164.439 C207.52236,164.439 212.347478,165.290491 216.6705,166.9935 C220.993521,168.696509 224.683318,171.098151 227.74,174.1985 C230.796682,177.298849 233.154658,181.054145 234.814,185.4645 C236.473341,189.874855 237.303,194.787306 237.303,200.202 C237.303,205.616694 236.473341,210.507312 234.814,214.874 C233.154658,219.240689 230.796682,222.974151 227.74,226.0745 C224.683318,229.174849 220.993521,231.554658 216.6705,233.214 C212.347478,234.873342 207.52236,235.703 202.195,235.703 C196.86764,235.703 192.064354,234.873342 187.785,233.214 C183.505645,231.554658 179.837682,229.174849 176.781,226.0745 C173.724318,222.974151 171.366341,219.240689 169.707,214.874 C168.047658,210.507312 167.218,205.616694 167.218,200.202 Z M247.479,140.466 L266.081,140.466 L266.081,234 L247.479,234 L247.479,140.466 Z M294.859,200.202 C294.859,202.909347 295.120997,205.551154 295.645,208.1275 C296.169002,210.703846 297.06416,213.018156 298.3305,215.0705 C299.596839,217.122844 301.277989,218.760327 303.374,219.983 C305.47001,221.205673 308.089984,221.817 311.234,221.817 C314.378015,221.817 317.019822,221.205673 319.1595,219.983 C321.299177,218.760327 323.00216,217.122844 324.2685,215.0705 C325.534839,213.018156 326.429997,210.703846 326.954,208.1275 C327.478002,205.551154 327.74,202.909347 327.74,200.202 C327.74,197.494653 327.478002,194.831013 326.954,192.211 C326.429997,189.590987 325.534839,187.276677 324.2685,185.268 C323.00216,183.259323 321.299177,181.62184 319.1595,180.3555 C317.019822,179.08916 314.378015,178.456 311.234,178.456 C308.089984,178.456 305.47001,179.08916 303.374,180.3555 C301.277989,181.62184 299.596839,183.259323 298.3305,185.268 C297.06416,187.276677 296.169002,189.590987 295.645,192.211 C295.120997,194.831013 294.859,197.494653 294.859,200.202 Z M276.257,200.202 C276.257,194.787306 277.086658,189.874855 278.746,185.4645 C280.405341,181.054145 282.763318,177.298849 285.82,174.1985 C288.876681,171.098151 292.544645,168.696509 296.824,166.9935 C301.103354,165.290491 305.90664,164.439 311.234,164.439 C316.561359,164.439 321.386478,165.290491 325.7095,166.9935 C330.032521,168.696509 333.722318,171.098151 336.779,174.1985 C339.835681,177.298849 342.193658,181.054145 343.853,185.4645 C345.512341,189.874855 346.342,194.787306 346.342,200.202 C346.342,205.616694 345.512341,210.507312 343.853,214.874 C342.193658,219.240689 339.835681,222.974151 336.779,226.0745 C333.722318,229.174849 330.032521,231.554658 325.7095,233.214 C321.386478,234.873342 316.561359,235.703 311.234,235.703 C305.90664,235.703 301.103354,234.873342 296.824,233.214 C292.544645,231.554658 288.876681,229.174849 285.82,226.0745 C282.763318,222.974151 280.405341,219.240689 278.746,214.874 C277.086658,210.507312 276.257,205.616694 276.257,200.202 Z M387.564999,218.018 C390.185013,218.018 392.499323,217.494005 394.507999,216.446 C396.516676,215.397995 398.175993,214.000675 399.485999,212.254 C400.796006,210.507325 401.778496,208.520511 402.433499,206.2935 C403.088503,204.066489 403.415999,201.730346 403.415999,199.285 C403.415999,196.490319 403.154002,193.848512 402.629999,191.3595 C402.105997,188.870488 401.232672,186.665343 400.009999,184.744 C398.787327,182.822657 397.171676,181.294339 395.162999,180.159 C393.154323,179.023661 390.621681,178.456 387.564999,178.456 C384.944986,178.456 382.696175,178.979995 380.818499,180.028 C378.940823,181.076005 377.368839,182.495158 376.102499,184.2855 C374.83616,186.075842 373.919169,188.128155 373.351499,190.4425 C372.78383,192.756845 372.499999,195.180321 372.499999,197.713 C372.499999,200.158346 372.740164,202.581821 373.220499,204.9835 C373.700835,207.385179 374.530494,209.546657 375.709499,211.468 C376.888505,213.389343 378.438656,214.961327 380.359999,216.184 C382.281342,217.406673 384.682985,218.018 387.564999,218.018 Z M421.100999,229.677 C421.100999,232.384347 420.729836,235.484649 419.987499,238.978 C419.245162,242.471351 417.651345,245.724485 415.205999,248.7375 C412.760654,251.750515 409.223689,254.30499 404.594999,256.401 C399.96631,258.49701 393.765705,259.545 385.992999,259.545 C382.674316,259.545 379.290183,259.130171 375.840499,258.3005 C372.390816,257.470829 369.246847,256.182675 366.408499,254.436 C363.570152,252.689325 361.212175,250.440514 359.334499,247.6895 C357.456823,244.938486 356.387001,241.641686 356.124999,237.799 L374.595999,237.799 C375.469337,241.292351 377.17232,243.715827 379.704999,245.0695 C382.237679,246.423173 385.163316,247.1 388.481999,247.1 C393.722026,247.1 397.542821,245.528016 399.944499,242.384 C402.346178,239.239984 403.503333,235.266357 403.415999,230.463 L403.415999,221.555 L403.153999,221.555 C401.145323,225.135685 398.285185,227.777491 394.573499,229.4805 C390.861814,231.183509 386.953687,232.035 382.848999,232.035 C377.783641,232.035 373.417018,231.139842 369.748999,229.3495 C366.080981,227.559158 363.068011,225.113849 360.709999,222.0135 C358.351988,218.913151 356.627172,215.288854 355.535499,211.1405 C354.443827,206.992146 353.897999,202.60369 353.897999,197.975 C353.897999,193.608312 354.53116,189.39452 355.797499,185.3335 C357.063839,181.27248 358.919654,177.691849 361.364999,174.5915 C363.810345,171.491151 366.845148,169.024009 370.469499,167.19 C374.093851,165.355991 378.263976,164.439 382.979999,164.439 C387.434022,164.439 391.342149,165.268658 394.704499,166.928 C398.06685,168.587342 400.883321,171.38198 403.153999,175.312 L403.415999,175.312 L403.415999,166.273 L421.100999,166.273 L421.100999,229.677 Z M467.039999,242.384 C465.031323,247.886028 462.236684,251.815988 458.655999,254.174 C455.075315,256.532012 450.097365,257.711 443.721999,257.711 C441.800656,257.711 439.901175,257.645501 438.023499,257.5145 C436.145823,257.383499 434.246342,257.230668 432.324999,257.056 L432.324999,241.729 C434.071675,241.903668 435.86199,242.078332 437.695999,242.253 C439.530009,242.427668 441.36399,242.471334 443.197999,242.384 C445.643345,242.121999 447.455493,241.161342 448.634499,239.502 C449.813505,237.842658 450.402999,236.008677 450.402999,234 C450.402999,232.515326 450.141002,231.118007 449.616999,229.808 L425.905999,166.273 L445.686999,166.273 L461.013999,212.647 L461.275999,212.647 L476.078999,166.273 L495.335999,166.273 L467.039999,242.384 Z" id="Biology" fill="#F4D019"></path>
        <path d="M4.536,190.712 C4.536,191.840006 4.6859985,192.841996 4.986,193.718 C5.2860015,194.594004 5.69999736,195.325997 6.228,195.914 C6.75600264,196.502003 7.37399646,196.951998 8.082,197.264 C8.79000354,197.576002 9.53999604,197.732 10.332,197.732 C11.124004,197.732 11.8739965,197.576002 12.582,197.264 C13.2900035,196.951998 13.9079974,196.502003 14.436,195.914 C14.9640026,195.325997 15.3779985,194.594004 15.678,193.718 C15.9780015,192.841996 16.128,191.840006 16.128,190.712 C16.128,189.583994 15.9780015,188.582004 15.678,187.706 C15.3779985,186.829996 14.9640026,186.092003 14.436,185.492 C13.9079974,184.891997 13.2900035,184.436002 12.582,184.124 C11.8739965,183.811998 11.124004,183.656 10.332,183.656 C9.53999604,183.656 8.79000354,183.811998 8.082,184.124 C7.37399646,184.436002 6.75600264,184.891997 6.228,185.492 C5.69999736,186.092003 5.2860015,186.829996 4.986,187.706 C4.6859985,188.582004 4.536,189.583994 4.536,190.712 Z M1.296,190.712 C1.296,189.343993 1.48799808,188.066006 1.872,186.878 C2.25600192,185.689994 2.83199616,184.658004 3.6,183.782 C4.36800384,182.905996 5.31599436,182.216003 6.444,181.712 C7.57200564,181.207997 8.86799268,180.956 10.332,180.956 C11.8200074,180.956 13.1219944,181.207997 14.238,181.712 C15.3540056,182.216003 16.2959962,182.905996 17.064,183.782 C17.8320038,184.658004 18.4079981,185.689994 18.792,186.878 C19.1760019,188.066006 19.368,189.343993 19.368,190.712 C19.368,192.080007 19.1760019,193.351994 18.792,194.528 C18.4079981,195.704006 17.8320038,196.729996 17.064,197.606 C16.2959962,198.482004 15.3540056,199.165998 14.238,199.658 C13.1219944,200.150002 11.8200074,200.396 10.332,200.396 C8.86799268,200.396 7.57200564,200.150002 6.444,199.658 C5.31599436,199.165998 4.36800384,198.482004 3.6,197.606 C2.83199616,196.729996 2.25600192,195.704006 1.872,194.528 C1.48799808,193.351994 1.296,192.080007 1.296,190.712 Z M22.788,184.088 L19.656,184.088 L19.656,181.388 L22.788,181.388 L22.788,178.616 C22.788,177.103992 23.2259956,175.958004 24.102,175.178 C24.9780044,174.397996 26.2559916,174.008 27.936,174.008 C28.2240014,174.008 28.5539981,174.032 28.926,174.08 C29.2980019,174.128 29.6279986,174.2 29.916,174.296 L29.916,176.96 C29.6519987,176.864 29.3640016,176.798 29.052,176.762 C28.7399984,176.726 28.4520013,176.708 28.188,176.708 C27.4439963,176.708 26.868002,176.851999 26.46,177.14 C26.051998,177.428001 25.848,177.979996 25.848,178.796 L25.848,181.388 L29.448,181.388 L29.448,184.088 L25.848,184.088 L25.848,200 L22.788,200 L22.788,184.088 Z" id="of" fill="#F4D019"></path>
    </g>
</svg>